<mxfile host="65bd71144e">
    <diagram id="GV7va8JnqZGNRI8vvYoy" name="Page-1">
        <mxGraphModel dx="957" dy="575" grid="1" gridSize="10" guides="1" tooltips="1" connect="1" arrows="1" fold="1" page="1" pageScale="1" pageWidth="850" pageHeight="1100" math="0" shadow="0">
            <root>
                <mxCell id="0"/>
                <mxCell id="1" parent="0"/>
                <mxCell id="27" style="edgeStyle=none;sketch=1;html=1;entryX=0.5;entryY=0;entryDx=0;entryDy=0;fontSize=14;entryPerimeter=0;" edge="1" parent="1" source="13" target="36">
                    <mxGeometry relative="1" as="geometry">
                        <mxPoint x="374.4000000000001" y="479.8399999999999" as="targetPoint"/>
                        <Array as="points">
                            <mxPoint x="170" y="360"/>
                            <mxPoint x="280" y="360"/>
                            <mxPoint x="379" y="360"/>
                        </Array>
                    </mxGeometry>
                </mxCell>
                <mxCell id="13" value="&lt;font style=&quot;font-size: 14px&quot;&gt;Testimonials&lt;/font&gt;" style="rounded=0;whiteSpace=wrap;html=1;sketch=1;fillColor=#0050ef;fontColor=#ffffff;strokeColor=#001DBC;" vertex="1" parent="1">
                    <mxGeometry x="110" y="200" width="120" height="60" as="geometry"/>
                </mxCell>
                <mxCell id="29" style="edgeStyle=none;sketch=1;html=1;entryX=0.5;entryY=0;entryDx=0;entryDy=0;entryPerimeter=0;fontSize=14;" edge="1" parent="1" source="14" target="36">
                    <mxGeometry relative="1" as="geometry">
                        <mxPoint x="374.4000000000001" y="479.8399999999999" as="targetPoint"/>
                    </mxGeometry>
                </mxCell>
                <mxCell id="14" value="&lt;font style=&quot;font-size: 14px&quot;&gt;Projects&lt;/font&gt;" style="rounded=0;whiteSpace=wrap;html=1;sketch=1;fillColor=#0050ef;fontColor=#ffffff;strokeColor=#001DBC;" vertex="1" parent="1">
                    <mxGeometry x="320" y="200" width="120" height="60" as="geometry"/>
                </mxCell>
                <mxCell id="28" style="edgeStyle=none;sketch=1;html=1;fontSize=14;entryX=0.5;entryY=0;entryDx=0;entryDy=0;entryPerimeter=0;" edge="1" parent="1" source="15" target="36">
                    <mxGeometry relative="1" as="geometry">
                        <mxPoint x="375.3599999999999" y="480.79999999999995" as="targetPoint"/>
                        <Array as="points">
                            <mxPoint x="580" y="360"/>
                            <mxPoint x="380" y="360"/>
                        </Array>
                    </mxGeometry>
                </mxCell>
                <mxCell id="15" value="&lt;font style=&quot;font-size: 14px&quot;&gt;Experiences&lt;/font&gt;" style="rounded=0;whiteSpace=wrap;html=1;sketch=1;fillColor=#0050ef;fontColor=#ffffff;strokeColor=#001DBC;" vertex="1" parent="1">
                    <mxGeometry x="520" y="200" width="120" height="60" as="geometry"/>
                </mxCell>
                <mxCell id="16" value="&lt;font style=&quot;font-size: 18px&quot;&gt;&lt;u&gt;Pages w/ data&lt;/u&gt;&lt;/font&gt;" style="text;html=1;align=center;verticalAlign=middle;resizable=0;points=[];autosize=1;strokeColor=none;fillColor=none;fontSize=14;" vertex="1" parent="1">
                    <mxGeometry x="310" y="130" width="130" height="20" as="geometry"/>
                </mxCell>
                <mxCell id="33" value="fetch at build time" style="text;html=1;strokeColor=none;fillColor=none;align=center;verticalAlign=middle;whiteSpace=wrap;rounded=0;sketch=1;fontSize=14;" vertex="1" parent="1">
                    <mxGeometry x="380" y="400" width="80" height="30" as="geometry"/>
                </mxCell>
                <mxCell id="36" value="&lt;span&gt;Sanity Studio&lt;/span&gt;" style="shape=cylinder3;whiteSpace=wrap;html=1;boundedLbl=1;backgroundOutline=1;size=15;sketch=1;fontSize=14;" vertex="1" parent="1">
                    <mxGeometry x="330" y="490" width="100" height="140" as="geometry"/>
                </mxCell>
            </root>
        </mxGraphModel>
    </diagram>
</mxfile>